<svg xmlns="http://www.w3.org/2000/svg" viewBox="0 0 1440 980" preserveAspectRatio="none">
	<g fill="none" stroke-linecap="round" stroke-linejoin="round">
		<path d="M-80 128c124-76 280-96 434-64 112 23 206 78 330 62 128-16 220-92 358-90 132 2 222 75 328 112 82 28 154 28 230 3" stroke="rgba(248,241,231,.075)" stroke-width="1.7"/>
		<path d="M-72 174c122-68 258-82 396-52 118 26 213 77 342 56 125-20 216-85 348-82 128 3 215 68 318 101 92 29 178 21 262-12" stroke="rgba(248,241,231,.045)" stroke-width="1.7"/>
		<path d="M-88 222c114-56 242-74 370-48 124 25 225 80 356 60 130-20 218-88 350-89 136-1 226 70 326 104 100 34 186 20 282-22" stroke="rgba(248,241,231,.075)" stroke-width="1.7"/>
		<path d="M-90 292c76-42 174-58 286-48 128 12 228 62 342 62 150 0 236-78 356-102 136-28 250 20 346 74 104 58 210 58 344 3" stroke="rgba(248,241,231,.045)" stroke-width="1.7"/>
		<path d="M30 374c74-42 158-54 252-34 111 24 170 88 285 94 130 7 214-62 319-97 132-44 255-13 348 61 70 56 148 90 250 54" stroke="rgba(248,241,231,.075)" stroke-width="1.7"/>
		<path d="M50 430c70-37 148-45 232-25 104 25 164 83 280 88 126 6 207-55 312-91 130-44 241-12 330 53 76 56 158 92 262 58" stroke="rgba(248,241,231,.045)" stroke-width="1.7"/>
		<path d="M-64 590c126-68 242-62 348-13 130 60 226 83 356 31 80-32 150-86 256-84 128 2 203 81 324 98 100 14 206-14 330-72" stroke="rgba(248,241,231,.075)" stroke-width="1.7"/>
		<path d="M-58 650c122-62 230-54 334-7 129 58 219 76 342 28 82-32 151-79 252-75 124 5 201 75 316 91 106 15 215-9 342-65" stroke="rgba(248,241,231,.045)" stroke-width="1.7"/>
		<path d="M-74 744c98-50 202-54 312-13 138 52 249 66 365 9 90-44 155-104 270-98 128 7 203 92 330 110 108 15 217-10 338-64" stroke="rgba(248,241,231,.075)" stroke-width="1.7"/>
		<path d="M20 850c94-39 190-34 289 8 136 58 244 62 354-2 82-48 157-94 262-82 117 14 190 92 310 108 105 14 201-8 300-48" stroke="rgba(248,241,241,.045)" stroke-width="1.7"/>
		<path d="M102 128c42-24 104-32 164-18 60 14 94 52 80 92-15 43-76 60-132 44-48-14-72-51-50-82 21-30 75-37 112-16" stroke="rgba(248,241,231,.07)" stroke-width="1.7"/>
		<path d="M502 210c66-44 174-52 244-16 58 30 66 88 14 124-52 36-146 35-196 0-38-27-30-70 18-90 42-18 100-11 128 14" stroke="rgba(248,241,231,.045)" stroke-width="1.7"/>
		<path d="M1054 168c78-54 194-60 270-13 72 44 70 117-3 154-68 34-171 17-207-35-31-45 2-95 72-104 48-6 95 12 116 42" stroke="rgba(248,241,231,.07)" stroke-width="1.7"/>
		<path d="M278 596c80-44 188-38 238 14 43 44 18 104-48 124-63 19-138-10-154-60-13-42 28-82 86-84 36-1 69 12 88 34" stroke="rgba(248,241,231,.045)" stroke-width="1.7"/>
		<path d="M794 624c62-38 154-36 206 5 52 42 41 105-23 132-60 25-138 2-162-47-19-39 8-78 62-90 40-9 82 4 106 30" stroke="rgba(248,241,231,.07)" stroke-width="1.7"/>
		<path d="M1124 580c86-52 206-48 268 7 57 51 34 124-44 151-72 25-158-7-178-65-17-49 29-95 100-96 44 0 84 18 106 48" stroke="rgba(248,241,231,.045)" stroke-width="1.7"/>
	</g>
</svg>
